<?xml version="1.0" encoding="utf-8"?>
<!-- Generator: Adobe Illustrator 19.1.0, SVG Export Plug-In . SVG Version: 6.00 Build 0)  -->
<svg version="1.1" id="Layer_1" xmlns="http://www.w3.org/2000/svg" xmlns:xlink="http://www.w3.org/1999/xlink" x="0px" y="0px"
	 width="281.5px" height="204.9px" viewBox="-164 294.1 281.5 204.9" style="enable-background:new -164 294.1 281.5 204.9;"
	 xml:space="preserve">
<style type="text/css">
	.st0{fill:#FFFFFF;}
	.st1{fill:#7BC144;}
	.st2{fill:#008853;}
</style>
<g>
	<path class="st0" d="M-164,396.8c0-59.5,50-102.7,98.2-102.7c51,0,40,0,86.5,0s96.8,44.2,96.8,102.5c0,53-41.4,102.4-102.4,102.4
		s-27.6,0-79.2,0S-164,454.4-164,396.8z"/>
	<path class="st1" d="M-88.2,396.4c0-38.8,21.2-72.4,52.6-90.2c-8-2.2-16.6-3.4-25.2-3.4c-52-0.2-94,41.8-94,93.6s42,94,94,94
		c8.8,0,17.4-1.2,25.6-3.6C-66.8,469-88.2,435.2-88.2,396.4"/>
	<path class="st2" d="M-78.4,396.8c0-51.8,42-93.8,93.8-93.8s93.8,42,93.8,93.8c0,51.8-42,93.8-93.8,93.8S-78.4,448.6-78.4,396.8"/>
	<path class="st0" d="M29,367c-6.6,0-12.6,2-17.4,5.6C6.8,369,0.8,367-5.8,367c-15.8,0-28.4,11.8-28.4,28.2s12.6,28.2,28.4,28.2
		c6.6,0,12.6-2,17.4-5.6c4.8,3.6,10.8,5.6,17.4,5.6c15.8,0,28.4-11.8,28.4-28.2S44.8,367,29,367z M29,417.4c-12,0-20.4-10-20.4-22.2
		c0-3.8,0.8-7.2,2.2-10.4c-1.4-2.4-3-4.4-5.2-6c-3.2,4.6-5,10.2-5,16.4c0,7,2.2,13,6,17.8c-3.4,2.6-7.6,4.2-12.4,4.2
		c-12,0-20.4-10-20.4-22.2s8.4-22.2,20.4-22.2s20.4,10,20.4,22.2c0,3.8-0.8,7.2-2.2,10.4c1.4,2.4,3,4.4,5.2,6c3.2-4.6,5-10.2,5-16.4
		c0-7-2.2-13-6-17.8c3.4-2.8,7.6-4.4,12.4-4.4c12,0,20.4,10,20.4,22.2C49.4,407.4,41,417.4,29,417.4z"/>
	<path class="st0" d="M-39.2,369.4c0-2-1.6-3.6-3.6-3.6s-3.6,1.6-3.6,3.6v0.8v51c0,2,1.6,3.6,3.6,3.6s3.6-1.6,3.6-3.6V369.4z"/>
	<path class="st0" d="M89.6,368.4h-1.8h-1.2H69.2c-5.4,0-7.8,3.4-7.8,8.6v44.6c0.2,2,1.8,3.4,3.6,3.4c2,0,3.6-1.6,3.6-3.4v-20.4
		c0-1.2,0.2-1.6,1.6-1.6h12.6c1.8,0,2.6-1.6,2.6-3.2c0-1.6-0.8-3.2-2.6-3.2H68.6v-15.4c0-2,0.6-3.2,3.6-3.2h14.2h0.8h2
		c1.8,0,2.6-1.4,2.6-3.2C92.2,369.8,91.4,368.4,89.6,368.4z"/>
</g>
</svg>
